<?xml version="1.0" encoding="UTF-8" standalone="no"?>
<svg
   xmlns:dc="http://purl.org/dc/elements/1.1/"
   xmlns:cc="http://creativecommons.org/ns#"
   xmlns:rdf="http://www.w3.org/1999/02/22-rdf-syntax-ns#"
   xmlns:svg="http://www.w3.org/2000/svg"
   xmlns="http://www.w3.org/2000/svg"
   xmlns:sodipodi="http://sodipodi.sourceforge.net/DTD/sodipodi-0.dtd"
   xmlns:inkscape="http://www.inkscape.org/namespaces/inkscape"
   width="134.79445"
   height="25"
   viewBox="0 0 61.179768 11.27451"
   version="1.1"
   xml:space="preserve"
   style="clip-rule:evenodd;fill-rule:evenodd;stroke-linejoin:round;stroke-miterlimit:2"
   id="svg26"
   sodipodi:docname="blog_title.svg"
   inkscape:version="1.0.1 (3bc2e813f5, 2020-09-07)"><sodipodi:namedview
     pagecolor="#ffffff"
     bordercolor="#666666"
     borderopacity="1"
     objecttolerance="10"
     gridtolerance="10"
     guidetolerance="10"
     inkscape:pageopacity="0"
     inkscape:pageshadow="2"
     inkscape:window-width="1858"
     inkscape:window-height="1057"
     id="namedview17"
     showgrid="false"
     inkscape:zoom="2.2656827"
     inkscape:cx="129.1529"
     inkscape:cy="2.9104755"
     inkscape:window-x="1912"
     inkscape:window-y="-8"
     inkscape:window-maximized="1"
     inkscape:current-layer="svg26"
     scale-x="0.85387"
     fit-margin-top="0"
     fit-margin-left="0"
     fit-margin-right="0"
     fit-margin-bottom="0"
     inkscape:document-rotation="0" /><metadata
     id="metadata32"><rdf:RDF><cc:Work
         rdf:about=""><dc:format>image/svg+xml</dc:format><dc:type
           rdf:resource="http://purl.org/dc/dcmitype/StillImage" /><dc:title></dc:title></cc:Work></rdf:RDF></metadata><defs
     id="defs30" /><g
     id="g10"
     transform="matrix(0.50430504,0,0,0.50430504,0,-0.04341204)"><path
       d="M 20.35,6.374 9.315,0 0,16.126 11.035,22.5 Z"
       style="fill:#8d778a"
       id="path2" /><path
       d="M 17.271,8.549 8.883,3.705 8.56,4.265 16.949,9.108 Z"
       style="fill:#ffffff"
       id="path4" /><path
       d="M 15.334,11.982 6.945,7.139 6.622,7.698 l 8.389,4.844 z"
       style="fill:#ffffff"
       id="path6" /><path
       d="M 10.794,22.353 20.112,6.214 19.328,5.761 10.01,21.9 Z"
       style="fill:#3b2939"
       id="path8" /></g><g
     id="g24"
     transform="matrix(0.50430504,0,0,0.50430504,0,-0.04341204)"><path
       d="m 28.935,5.337 c 0,-1.7 -1.08,-2.34 -2.12,-2.34 -0.96,0 -0.96,1.46 0,1.46 0.32,0 0.66,0.16 0.66,0.88 v 4.72 c 0,2.86 -0.96,5.14 -3.22,7.98 -0.62,0.76 0.58,1.68 1.18,0.94 2.48,-3.12 3.5,-5.7 3.5,-8.92 z m -7.02,-0.78 c 0,-0.96 -1.46,-0.96 -1.46,0 v 7 c 0,1.28 0.86,2.24 2.34,1.92 0.92,-0.2 1.76,-1 2.04,-1.94 0.28,-0.92 -1.12,-1.36 -1.4,-0.42 -0.14,0.42 -0.56,0.84 -0.94,0.92 -0.58,0.12 -0.58,-0.54 -0.58,-0.78 z"
       style="fill:#583b55;fill-rule:nonzero"
       id="path12" /><path
       d="m 48.435,18.017 c -2.06,-2.48 -3.12,-3.72 -5.62,-6.44 -0.14,-0.14 -0.12,-0.4 0.02,-0.54 2.64,-2.58 4.3,-4.26 4.86,-5.1 0.72,-1.06 0.18,-2.3 -0.7,-2.82 -0.8,-0.48 -1.56,0.76 -0.72,1.26 0.3,0.18 0.38,0.46 0.24,0.78 -0.1,0.22 -2.46,2.72 -4.54,4.72 -0.96,0.98 -1.06,1.78 -0.14,2.78 2.06,2.34 3.12,3.44 5.42,6.4 0.6,0.82 1.8,-0.22 1.18,-1.04 z"
       style="fill:#583b55;fill-rule:nonzero"
       id="path14" /><path
       d="m 63.415,6.937 c -0.14,0 -0.22,-0.12 -0.16,-0.22 l 1.34,-2.78 c 0.4,-0.86 -0.88,-1.48 -1.28,-0.62 l -1.64,3.44 c -0.06,0.12 -0.18,0.18 -0.32,0.18 h -2.94 c -0.92,0 -0.92,1.42 0,1.42 h 2.22 c 0.14,0 0.22,0.12 0.16,0.22 l -2.22,4.58 c -0.4,0.88 0.9,1.5 1.3,0.64 l 2.5,-5.26 c 0.04,-0.12 0.18,-0.18 0.3,-0.18 h 2.12 c 1.3,0 2.34,-1.06 2.34,-2.34 0,-0.94 -1.38,-0.94 -1.38,0 0,0.5 -0.44,0.92 -0.96,0.92 z m 7.58,8.8 c 0.98,0 0.98,-1.44 0,-1.44 h -2.56 c -0.12,0 -0.22,-0.1 -0.22,-0.22 v -0.92 c -0.08,-2.5 -0.08,-2.5 2.76,-4.66 0.78,-0.52 0,-1.7 -0.78,-1.18 -3.42,2.52 -3.4,2.92 -3.4,5.84 v 0.92 c 0,0.12 -0.1,0.22 -0.22,0.22 h -0.88 c -1.46,0 -2.52,1.02 -2.2,2.46 0.26,1.28 1.56,2.32 2.76,2.32 1.18,0 1.98,-0.98 1.98,-2.14 v -0.98 c 0,-0.12 0.1,-0.22 0.22,-0.22 z m -4.22,1.22 c 0,0.34 -0.16,0.7 -0.52,0.7 -0.56,0 -1.26,-0.6 -1.4,-1.2 -0.1,-0.54 0.28,-0.74 0.8,-0.74 h 0.9 c 0.12,0 0.22,0.1 0.22,0.22 z"
       style="fill:#583b55;fill-rule:nonzero"
       id="path16" /><path
       d="m 93.455,5.757 h 0.56 c 0.8,0 0.82,-1.22 0,-1.24 l -1.28,-0.02 c -0.9,-0.02 -1.2,0.82 -0.76,1.34 l 0.24,0.36 c 0.06,0.08 -0.04,0.3 -0.18,0.3 0,0 -0.16,0.04 -1.06,0 -0.78,0.02 -0.78,1.26 0.04,1.22 l 1.42,-0.02 c 0.9,0.04 1.52,-0.6 1,-1.52 -0.28,-0.3 -0.22,-0.42 0.02,-0.42 z m -6.22,3.3 c -0.12,0 -0.24,-0.1 -0.24,-0.22 v -2 c 0.04,-0.1 0.2,-0.26 0.28,-0.26 l 2.44,0.02 c 0.96,0 0.96,-1.42 0,-1.42 l -2.36,0.02 c -0.12,0 -0.32,-0.12 -0.36,-0.2 v -1.4 c 0,-0.96 -1.42,-0.96 -1.42,0 v 1.32 c 0,0.12 -0.1,0.28 -0.22,0.28 l -5.28,-0.02 c -0.96,0 -0.96,1.42 0,1.42 l 5.2,-0.02 c 0.16,0 0.3,0.06 0.3,0.2 v 2.06 c 0,0.12 -0.1,0.22 -0.22,0.22 h -3.1 c -1.04,0 -0.98,1.36 -0.06,1.4 h 3.16 c 0.12,0 0.22,0.1 0.22,0.22 v 1.44 c 0,0.78 -0.4,0.88 -0.88,0.88 h -1.66 c -2.68,0 -3.82,3.16 -1.88,4.92 1.44,1.28 4.64,1.44 5.02,1.44 0.88,0 0.98,-1.36 0.1,-1.44 -1.6,-0.14 -3.22,-0.22 -4.14,-1.06 -0.96,-0.88 -0.44,-2.48 0.9,-2.48 h 1.66 c 1.28,0 2.3,-0.46 2.3,-2.28 v -1.44 c 0,-0.12 0.12,-0.2 0.24,-0.2 h 0.54 c 1.3,0 2.34,-1.06 2.34,-2.36 0,-0.92 -1.42,-0.92 -1.42,0 0,0.52 -0.4,0.96 -0.92,0.96 z"
       style="fill:#583b55;fill-rule:nonzero"
       id="path18" /><path
       d="m 103.235,7.297 c 0,-1.08 -0.52,-1.48 -1.36,-1.48 h -1.46 v -2.82 c 0,-0.82 -1.34,-0.82 -1.34,0 v 2.82 h -1.36 c -0.76,0 -1.38,0.36 -1.38,1.48 v 8 c 0,0.82 1.3,0.82 1.3,0 v -7.86 c 0,-0.16 0.14,-0.3 0.3,-0.3 h 1.14 v 12.26 c 0,0.88 1.34,0.88 1.34,0 V 7.137 h 1.24 c 0.16,0 0.28,0.14 0.28,0.3 v 6.64 c -0.2,-0.08 -0.52,-0.12 -0.82,-0.12 -0.6,0 -0.6,0.88 0,0.88 0.4,0 0.76,0.2 0.88,0.54 0.2,0.62 1.24,0.48 1.24,-0.24 z m 5.68,-4.24 c 0,-0.84 -1.38,-0.84 -1.38,0 v 8.24 h -1.64 c -0.7,0 -1.42,0.42 -1.42,1.42 v 6.52 c 0,0.82 1.18,0.96 1.36,0.16 h 5.36 c 0.18,0.8 1.36,0.66 1.36,-0.16 v -6.52 c 0,-1.04 -0.7,-1.42 -1.46,-1.42 h -2.18 v -3.68 h 3.84 c 0.86,0 0.88,-1.4 0.04,-1.4 h -3.88 z m -3.06,15.02 v -5.16 c 0,-0.16 0.14,-0.28 0.3,-0.28 h 4.72 c 0.18,0 0.3,0.12 0.3,0.28 v 5.16 z"
       style="fill:#583b55;fill-rule:nonzero"
       id="path20" /><path
       d="m 121.315,17.217 c 0,-1.58 -1.3,-2.88 -2.9,-2.88 -1.6,0 -2.9,1.3 -2.9,2.88 0,1.6 1.3,2.9 2.9,2.9 1.6,0 2.9,-1.3 2.9,-2.9 z m -1.08,0 c 0,1.02 -0.82,1.84 -1.82,1.84 -1,0 -1.82,-0.82 -1.82,-1.84 0,-1 0.82,-1.82 1.82,-1.82 1,0 1.82,0.82 1.82,1.82 z"
       style="fill:#583b55;fill-rule:nonzero"
       id="path22" /></g></svg>
